<?xml version="1.0" encoding="UTF-8" standalone="no"?>
<!-- Created with Inkscape (http://www.inkscape.org/) -->

<svg
   width="52.992207mm"
   height="61.195423mm"
   viewBox="0 0 52.992207 61.195423"
   version="1.1"
   id="svg5"
   xml:space="preserve"
   xmlns="http://www.w3.org/2000/svg"
   xmlns:svg="http://www.w3.org/2000/svg"><defs
     id="defs2" /><g
     id="layer1"
     transform="translate(-3.850973,-6.9893206)"><g
       id="g8650"
       transform="translate(-30.259311,-82.5)"><g
         id="g8634"><path
           style="opacity:1;fill:#5500d4;fill-opacity:0.980392;stroke:#ffffff;stroke-width:1;stroke-linecap:round;stroke-linejoin:round;stroke-dashoffset:4.65639;stroke-opacity:1"
           d="m 34.622609,135.12059 4.323939,2.5107 4.32394,2.5107 4.323939,2.51069 4.323938,2.51069 4.32394,2.51069 4.323938,2.51069 4.336289,-2.4893 4.336289,-2.48929 4.336288,-2.4893 4.336289,-2.4893 4.336288,-2.48931 4.336289,-2.48932 -4.323938,-2.51069 -4.32394,-2.5107 -4.323938,-2.51069 -4.323939,-2.51071 -4.32394,-2.5107 -4.323938,-2.5107 -4.336289,2.48931 -4.336289,2.48931 -4.33629,2.48932 -4.336287,2.4893 -4.336291,2.48931 z"
           id="path5944" /><path
           style="opacity:1;fill:#4400aa;fill-opacity:1;stroke:#ffffff;stroke-width:1;stroke-linecap:round;stroke-linejoin:round;stroke-dashoffset:4.65639;stroke-opacity:1"
           d="M 60.621777,150 60.621761,119.99999 86.60254,135 Z"
           id="path8078" /></g><g
         id="g8014"><path
           style="opacity:1;fill:#ff00cc;fill-opacity:1;stroke:#ffffff;stroke-width:1;stroke-linecap:round;stroke-linejoin:round;stroke-dashoffset:4.65639;stroke-opacity:1"
           d="m 34.641017,105 v 5 5 5 5 5 5 l 4.330126,2.5 4.330128,2.5 4.330126,2.5 10e-7,-5 v -5 -5 -5 l 4.330127,2.5 4.330127,2.5 4.330128,2.5 v -5 -5 l -4.330129,-2.5 -4.330126,-2.5 -4.330128,-2.5 -4.330126,-2.5 -4.330128,-2.5 z"
           id="path2810-3" /><path
           style="opacity:1;fill:#d400aa;fill-opacity:0.980392;stroke:#ffffff;stroke-width:1;stroke-linecap:round;stroke-linejoin:round;stroke-dashoffset:4.65639;stroke-opacity:1"
           d="m 86.550962,105 v 5 5 5 5 5 5 l -4.330126,2.5 -4.330128,2.5 -4.330126,2.5 -10e-7,-5 v -5 -5 -5 l -4.330127,2.5 -4.330127,2.5 -4.330128,2.5 v -5 -5 l 4.330129,-2.5 4.330126,-2.5 4.330128,-2.5 4.330126,-2.5 4.330128,-2.5 z"
           id="path2890" /><path
           style="opacity:1;fill:#ff00cc;fill-opacity:1;stroke:#ffffff;stroke-width:1;stroke-linecap:round;stroke-linejoin:round;stroke-dashoffset:4.65639;stroke-opacity:1"
           d="m 60.621777,150 v -5 -5 l 10e-7,-5 v -3 l -8.660254,-5 -10e-7,3 v 5.0838 4.9162 5 l 4.330128,2.5 z"
           id="path2946" /><path
           style="opacity:1;fill:#d400aa;fill-opacity:0.980392;stroke:#ffffff;stroke-width:1;stroke-linecap:round;stroke-linejoin:round;stroke-dashoffset:4.65639;stroke-opacity:1"
           d="m 60.621776,132 4.330129,-2.5 4.330125,-2.5 v 5 l -4.330125,2.5 -4.330129,2.5 z"
           id="path2948" /><path
           style="opacity:1;fill:#d400aa;fill-opacity:0.980392;stroke:#ffffff;stroke-width:1;stroke-linecap:round;stroke-linejoin:round;stroke-dashoffset:4.65639;stroke-opacity:1"
           d="m 60.621778,140 4.330127,-2.5 2.598076,-1.5 v 4 l -2.598076,1.5 -4.330127,2.5 z"
           id="path2950" /></g><g
         id="g8022"><path
           style="opacity:1;fill:#5500d4;fill-opacity:0.980392;stroke:#ffffff;stroke-width:1;stroke-linecap:round;stroke-linejoin:round;stroke-dashoffset:4.65639;stroke-opacity:1"
           d="m 34.610234,104.92511 4.323939,2.5107 4.32394,2.5107 4.323939,2.51069 4.323938,2.51069 4.32394,2.51069 4.323938,2.51069 4.336289,-2.4893 4.336289,-2.48929 4.336288,-2.4893 4.336289,-2.4893 4.336288,-2.48931 4.336289,-2.48932 -4.323938,-2.51069 -4.32394,-2.5107 -4.323938,-2.510685 -4.323939,-2.510688 -4.32394,-2.510687 -4.323938,-2.510687 -4.336289,2.489299 -4.336289,2.489296 -4.33629,2.489298 -4.336287,2.489297 -4.336291,2.489307 z"
           id="path2810" /><path
           style="opacity:1;fill:#5500d4;fill-opacity:0.980392;stroke:#ffffff;stroke-width:1;stroke-linecap:round;stroke-linejoin:round;stroke-dashoffset:4.65639;stroke-opacity:1"
           d="m 69.282032,110 8.660254,-5 -8.660254,-5"
           id="path6000" /><path
           style="opacity:1;fill:#5500d4;fill-opacity:0.980392;stroke:#ffffff;stroke-width:1;stroke-linecap:round;stroke-linejoin:round;stroke-dashoffset:4.65639;stroke-opacity:1"
           d="m 51.961524,110 -8.660254,-5 c -0.262854,0.17533 8.660254,-5 8.660254,-5"
           id="path6002" /><path
           style="opacity:1;fill:#5500d4;fill-opacity:0.980392;stroke:#ffffff;stroke-width:1;stroke-linecap:round;stroke-linejoin:round;stroke-dashoffset:4.65639;stroke-opacity:1"
           d="m 64.951906,97.5 -8.660255,15"
           id="path6004" /></g></g></g></svg>
